<?xml version="1.0" standalone="no"?><!DOCTYPE svg PUBLIC "-//W3C//DTD SVG 1.1//EN" "http://www.w3.org/Graphics/SVG/1.1/DTD/svg11.dtd"><svg class="icon" width="200px" height="200.00px" viewBox="0 0 1024 1024" version="1.1" xmlns="http://www.w3.org/2000/svg"><path fill="#333333" d="M959.273836 910.377196c-42.877553-191.750185-187.791014-309.776276-373.978507-334.020446 100.112092-31.791054 172.696224-125.914758 172.696224-237.093906 0-137.299039-110.687962-248.604054-247.223614-248.604054-136.53463 0-247.225661 111.305015-247.225661 248.604054 0 111.485117 72.982198 205.827809 173.521009 237.363036-186.019671 24.914436-330.228073 143.543254-372.35145 335.678202-2.051729 9.333576 3.816932 18.566868 13.107529 20.629853 1.252527 0.270153 2.496867 0.406253 3.723811 0.406253 7.904017 0 15.025205-5.513574 16.798595-13.594623 44.190455-201.554482 208.272487-313.432549 413.859819-313.432549 204.715475 0 368.627638 111.1331 413.473009 311.671439 2.085498 9.318226 11.199063 15.184841 20.581758 13.08911C955.524442 928.975786 961.358311 919.712819 959.273836 910.377196z" /></svg>