<?xml version="1.0" standalone="no"?><!DOCTYPE svg PUBLIC "-//W3C//DTD SVG 1.1//EN" "http://www.w3.org/Graphics/SVG/1.1/DTD/svg11.dtd"><svg class="icon" width="200px" height="200.00px" viewBox="0 0 1024 1024" version="1.1" xmlns="http://www.w3.org/2000/svg"><path fill="#333333" d="M512 590.933333a256 256 0 1 1 256-256 256 256 0 0 1-256 256z m0-426.666666a170.666667 170.666667 0 1 0 170.666667 170.666666 170.666667 170.666667 0 0 0-170.666667-170.666666zM810.666667 932.266667a42.666667 42.666667 0 0 1-42.666667-42.666667 256 256 0 0 0-512 0 42.666667 42.666667 0 0 1-85.333333 0 341.333333 341.333333 0 1 1 682.666666 0 42.666667 42.666667 0 0 1-42.666666 42.666667z" /></svg>