<?xml version="1.0" standalone="no"?><!DOCTYPE svg PUBLIC "-//W3C//DTD SVG 1.1//EN" "http://www.w3.org/Graphics/SVG/1.1/DTD/svg11.dtd"><svg class="icon" width="200px" height="200.00px" viewBox="0 0 1024 1024" version="1.1" xmlns="http://www.w3.org/2000/svg"><path d="M579.2 646.5H445.1c-14.4 0-26.2-11.8-26.2-26.2V436.7c0-14.4 11.8-26.2 26.2-26.2h134.1c14.4 0 26.2 11.8 26.2 26.2v183.6c0 14.4-11.8 26.2-26.2 26.2z" fill="#F7C9A4" /><path d="M840.7 959.1V779c0-83.9-147.8-139.5-328.4-139.5-180.6 0-328.4 55.6-328.4 139.5v180.1h656.8z" fill="#E8E8DD" /><path d="M381.5 420.5h-53.7c-26.5 0-48.1-21.7-48.1-48.1 0-26.5 21.7-48.1 48.1-48.1h53.7c26.5 0 48.1 21.7 48.1 48.1 0 26.4-21.7 48.1-48.1 48.1zM687 415.9h-53.7c-26.5 0-48.1-21.7-48.1-48.1 0-26.5 21.7-48.1 48.1-48.1H687c26.5 0 48.1 21.7 48.1 48.1 0.1 26.4-21.6 48.1-48.1 48.1z" fill="#F7C9A4" /><path d="M800.7 959.1V779c0-83.9-81.2-139.5-288.4-139.5-202.6 0-288.4 55.6-288.4 139.5v180.1h576.8z" fill="#F2F2F1" /><path d="M512.1 549.1c-95.4 0-173.5-55.2-173.5-156.2V258.7c0-101 78.1-183.7 173.5-183.7s173.5 82.7 173.5 183.8v134.1c0 101-78.1 156.2-173.5 156.2z" fill="#FFD9B6" /><path d="M409 353.3a19.2 23.8 0 1 0 38.4 0 19.2 23.8 0 1 0-38.4 0Z" fill="#694B4B" /><path d="M576 353.3a19.2 23.8 0 1 0 38.4 0 19.2 23.8 0 1 0-38.4 0Z" fill="#694B4B" /><path d="M339.6 959.1v-112c0-7.7-6.3-14-14-14s-14 6.3-14 14V959h28zM711.3 959.1v-112c0-7.7-6.3-14-14-14s-14 6.3-14 14V959h28z" fill="#E5E5DB" /><path d="M577.8 649.5H447.3c-8.6 12.2-8.6 32.2 0 44.5l49.5 70.2c8.6 12.2 22.8 12.2 31.4 0l49.5-70.2c8.7-12.3 8.7-32.3 0.1-44.5z" fill="#0AC2FD" /><path d="M700.4 82.6h-243c-28.9 0-54 19.7-65.8 48.1-37.5 3.3-63.4 40-63.4 84.2l11.4 119.4H397c2.6 0 4.8-2.2 4.8-4.9v-65.1c0-3.1 2.2-5.7 4.9-5.7l212 20.8c2.7 0 4.9 2.6 4.9 5.7v40.5c0 3.7 2.9 6.7 6.5 6.7l45.4 2h7.1c19.4 0 36.3-230.3 36.3-230.3 1.3-12.5-8.3-21.4-18.5-21.4z" fill="#F7CCA5" /><path d="M712.1 62.6h-254c-29.3 0-54.7 19.3-66.6 47.2-38 3.3-68.1 39.1-68.1 82.4l14 117.3H379c2.7 0 4.8-2.2 4.8-4.8v-63.8c0-3.1 2.2-5.6 5-5.6l246.8 22.3c2.7 0 5 2.5 5 5.6V303c0 3.6 2.9 6.5 6.6 6.5h46.1c12.3 0 37.6-225.9 37.6-225.9 1.1-12.3-8.5-21-18.8-21z" fill="#694B4B" /><path d="M511.3 648.5l-36.5 79.4c-6.5 10.3-13.6 21.2-24.1 11.7l-103.4-75.7c-7.9-7.9-15.9-13.9-12.8-23.6l32.3-54.2c3.1-9.7 14-15 24.1-11.7L498.5 625c10.2 3.2 15.9 13.8 12.8 23.5z" fill="#E8E8DD" /><path d="M513.2 647.9l35.9 79.6c6.4 10.4 13.4 21.3 24.1 11.9l103.9-75c7.9-7.8 16-13.8 12.9-23.5l-21-51.4c-3.1-9.7-13.9-15.1-24.1-11.9L526 624.3c-10 3.3-15.9 13.9-12.8 23.6z" fill="#E8E8DD" /><path d="M549.3 959.7h-73.9c-7.7 0-14-3-14-6.7l30-206c0-3.7 6.3-6.7 14-6.7h13.9c7.7 0 14 3 14 6.7l30 206c0 3.7-6.3 6.7-14 6.7z" fill="#0AC2FD" /><path d="M528.3 762.3h-33c-3 0-5.5-2.5-5.5-5.5s2.5-5.5 5.5-5.5h33c3 0 5.5 2.5 5.5 5.5s-2.5 5.5-5.5 5.5z" fill="#079FDB" /></svg>