<?xml version="1.0" standalone="no"?><!DOCTYPE svg PUBLIC "-//W3C//DTD SVG 1.1//EN" "http://www.w3.org/Graphics/SVG/1.1/DTD/svg11.dtd"><svg class="icon" width="200px" height="200.00px" viewBox="0 0 1024 1024" version="1.1" xmlns="http://www.w3.org/2000/svg"><path fill="#333333" d="M389.551692 624.101147m-31.518854 0a30.801 30.801 0 1 0 63.037708 0 30.801 30.801 0 1 0-63.037708 0ZM652.540362 624.101147m-31.518854 0a30.801 30.801 0 1 0 63.037708 0 30.801 30.801 0 1 0-63.037708 0ZM847.684854 529.096377c-0.045025-4.295839-0.149403-8.621355-0.363274-12.992919 0.13303-2.305509 0.268106-4.625344 0.407276-6.967692 0.378623-6.356778-0.678452-13.248745-2.848884-20.491707C830.993706 380.954385 764.669138 262.137279 610.478384 231.385904c1.904373-6.335289 2.939959-12.993942 2.939959-19.87363 0-41.821501-37.56864-75.724659-83.911108-75.724659s-83.911108 33.903158-83.911108 75.724659c0 6.943133 1.056052 13.660114 2.995217 20.047592-172.023912 35.075867-236.311077 182.030823-237.282195 298.369481-23.9996 17.796318-39.005362 46.121434-39.005362 77.406974 0 39.932478 24.435529 75.05644 60.84067 89.587388 34.624589 219.769332 49.247634 160.39199 49.247634 134.317125 0-11.918447-5.146207-45.87584-6.573719-87.158059 13.103436 24.085558 29.740348 46.427402 49.67026 66.358337 54.438866 54.43989 126.81936 84.420715 203.807802 84.420715s149.368936-29.980825 203.807802-84.420715c12.723789-12.723789 24.091698-26.437116 34.072003-40.950667-1.344624 36.572964-2.363837 68.071352-2.363837 79.698157-0.001023 26.203802 25.240871-6.881734 51.846832-118.42211 2.76395-11.589966 5.240351-22.466688 7.479345-32.766264 37.966707-13.806447 63.677275-49.704029 63.677275-90.664929C887.815853 575.563688 872.344486 546.834366 847.684854 529.096377zM185.606767 607.336322c0-23.657816 9.965979-45.358047 26.38902-60.692291 0.218988 1.860371 0.481977 3.584642 0.799202 5.143137l-0.00614 0.010233c6.465249 50.726312 12.4301 93.470835 17.918092 129.407302C203.428667 667.129126 185.606767 638.983089 185.606767 607.336322zM768.189312 742.575446c-47.387263 82.9492-136.716778 138.982378-238.892879 138.982378-114.103758 0-212.184587-69.87851-253.723655-169.08293 1.255597-58.504462 12.951987-123.56627 55.943127-160.625304 46.228881-39.848567 68.721151-105.32379 79.591733-155.708318 10.060123 44.267203 32.988322 97.670483 85.256756 109.897969 88.686878 20.74651 127.991046 21.788236 168.504762 22.452361 19.190061 0.315178 100.624768-3.069919 108.812241 78.843696C773.682419 607.336322 770.696412 677.210739 768.189312 742.575446zM827.486836 682.174797c11.06501-53.956889 15.004739-90.705861 17.404392-125.483946 1.016143-2.846838 1.76418-6.480598 2.237971-10.962679 17.016559 15.377222 27.384697 37.474496 27.384697 61.60815C874.512872 639.723963 855.849814 668.449191 827.486836 682.174797z" /></svg>