<?xml version="1.0" standalone="no"?><!DOCTYPE svg PUBLIC "-//W3C//DTD SVG 1.1//EN" "http://www.w3.org/Graphics/SVG/1.1/DTD/svg11.dtd"><svg class="icon" width="200px" height="200.00px" viewBox="0 0 1024 1024" version="1.1" xmlns="http://www.w3.org/2000/svg"><path d="M552.931362 573.36636m-409.109069 0a409.109069 409.109069 0 1 0 818.218138 0 409.109069 409.109069 0 1 0-818.218138 0Z" fill="#0099FF" opacity=".2" /><path d="M644.367239 1005.95829C371.573312 1079.066081 91.149501 917.161167 18.062165 644.346784-55.045625 371.552857 106.859289 91.129045 379.673672 18.04171c272.793927-73.107791 553.217739 88.797123 626.305074 361.591051 73.107791 272.814383-88.797123 553.217739-361.611507 626.325529z m302.331602-610.431642C885.312026 166.364203 624.709549 15.914343 395.547103 77.301159 166.384658 138.70843 15.934798 399.310907 77.34207 628.473352 138.728885 857.635797 399.331362 1008.085657 628.493807 946.678386c229.162445-61.407271 379.612305-321.989293 318.205034-551.151738z m-194.735917 65.989293c2.413744 15.300679-6.586656 30.314982-21.887335 34.406073-16.364363 4.397922-33.199201-5.318418-37.576668-21.703237a30.499081 30.499081 0 0 1 20.209988-36.840271l-11.843707-7.282142c35.531123-63.145985 17.428046-129.687575-45.656572-166.118737-51.936396-29.967239-105.979704-22.787375-144.129125 15.34159 1.943268 2.822853 3.681982 5.829804 4.622932 9.327687l100.59992 375.418937c0.940951 3.497883 0.920495 6.995765 0.654575 10.411826 1.943268 2.822853 3.702437 5.829804 4.643388 9.348142 3.845625 14.359728-3.518338 28.576268-16.364363 34.917459l-15.607511 27.021654a184.099081 184.099081 0 0 1-251.479345 67.380264 184.078626 184.078626 0 0 1-67.380264-251.479345l8.836756 3.456972c3.641071-8.14127 10.370915-14.809748 19.657691-17.284859a30.68318 30.68318 0 0 1 37.576668 21.682781l-27.328486 7.323052 27.798961 10.902757c-25.548861 57.295725-27.901239 136.049221 31.521854 172.255374 62.71642 38.210787 130.935358 18.675829 167.652897-44.920176l20.455453-35.428845-100.518098-375.132561a30.355893 30.355893 0 0 1-0.654575-10.391371 30.028606 30.028606 0 0 1-4.622932-9.348142c-0.777307-2.904674-0.613664-5.747982-0.552297-8.59129l-2.106912-1.288694c0.756852-1.309149 1.615981-2.47511 2.393288-3.743348 1.595525-8.264003 6.566201-15.34159 13.76652-19.903156 53.756932-68.689413 141.715382-86.342469 221.246185-40.399521a184.099081 184.099081 0 0 1 67.380264 251.479345l-1.30915-0.818218z" fill="#0099FF" /></svg>