<?xml version="1.0" standalone="no"?><!DOCTYPE svg PUBLIC "-//W3C//DTD SVG 1.1//EN" "http://www.w3.org/Graphics/SVG/1.1/DTD/svg11.dtd"><svg class="icon" width="200px" height="200.00px" viewBox="0 0 1024 1024" version="1.1" xmlns="http://www.w3.org/2000/svg"><path d="M984.646 724.255c0 17.143-25.614 31.051-57.18 31.051H140.628c-31.583 0-57.188-13.908-57.188-31.051V404.54c0-17.142 27.751-38.717 57.188-31.052 45.908 11.94 109.776 67.355 171.478 64.912 74.231-2.956 169.416-57.346 231.126-58.016 55.171-0.63 138.455 44.727 209.388 46.657 61.632 1.655 129.134-43.583 174.846-53.553 30.028-6.542 57.18 13.911 57.18 31.052v319.715z" fill="#2CA6E0" /><path d="M927.466 760.306H140.628c-34.872 0-62.188-15.835-62.188-36.051V404.54c0-17.051 22.194-37.645 49.756-37.645 4.615 0 9.222 0.59 13.692 1.754 17.738 4.613 37.814 15.369 59.069 26.757 33.309 17.845 71.062 38.072 107.163 38.072a95.01 95.01 0 0 0 3.788-0.075c37.251-1.483 80.181-16.278 121.698-30.585 40.437-13.936 78.632-27.099 109.571-27.434 0.397-0.005 0.799-0.007 1.201-0.007 27.294 0 60.526 10.457 95.711 21.527 37.752 11.878 76.789 24.162 112.666 25.138 37.743 1.018 78.68-16.465 114.634-31.839 21.435-9.165 41.68-17.821 59.011-21.601a59.52 59.52 0 0 1 12.644-1.364c28.498 0 50.602 20.052 50.602 37.301v319.715c0 20.217-27.313 36.052-62.18 36.052z m-799.27-383.411c-22.684 0-39.756 16.771-39.756 27.645v319.715c0 14.121 23.899 26.051 52.188 26.051h786.838c28.284 0 52.18-11.93 52.18-26.051V404.54c0-10.994-17.049-27.301-40.602-27.301-3.521 0-7.058 0.381-10.514 1.134-16.402 3.578-36.224 12.053-57.209 21.025-35.832 15.321-76.446 32.687-115.381 32.687-1.151 0-2.308-0.015-3.454-0.046-37.276-1.015-76.991-13.511-115.398-25.596-34.917-10.987-67.893-21.329-93.798-21.06-29.324 0.318-66.775 13.225-106.425 26.889-42.201 14.543-85.838 29.582-124.56 31.124-1.379 0.055-2.787 0.083-4.185 0.083-38.611 0-77.54-20.856-111.886-39.258-20.714-11.098-40.279-21.58-56.865-25.894a44.328 44.328 0 0 0-11.173-1.432z" fill="#433F3F" /><path d="M523.869 89.485h10v428.751h-10z" fill="#433F3F" /><path d="M518.676 85.951l7.111 7.03-146.27 147.957-7.112-7.03zM536.304 85.937L684.143 233.9l-7.074 7.068L529.23 93.005zM521.355 664.962a267.5 267.5 0 0 1-22.687-0.944c-56.731-4.835-97.422-27.766-114.576-64.566l7.251-3.381c15.893 34.095 54.25 55.395 108.005 59.976 54.554 4.649 118.25-8.479 179.349-36.968l3.381 7.25c-54.085 25.218-110.272 38.633-160.723 38.633z" fill="#433F3F" /><path d="M517.27 88.811a10.232 5.498 0 1 0 20.464 0 10.232 5.498 0 1 0-20.464 0Z" fill="#433F3F" /></svg>