<?xml version="1.0" standalone="no"?><!DOCTYPE svg PUBLIC "-//W3C//DTD SVG 1.1//EN" "http://www.w3.org/Graphics/SVG/1.1/DTD/svg11.dtd"><svg class="icon" width="200px" height="200.00px" viewBox="0 0 1024 1024" version="1.1" xmlns="http://www.w3.org/2000/svg"><path fill="#333333" d="M752 720H640a32 32 0 0 1 0-64h112c79.4 0 144-64.6 144-144a144 144 0 0 0-132.45-143.54 32 32 0 0 1-29.24-28C720.6 228.46 625 144 512 144s-208.6 84.46-222.31 196.45a32 32 0 0 1-29.24 28A144 144 0 0 0 128 512c0 79.4 64.6 144 144 144h112a32 32 0 0 1 0 64H272c-114.69 0-208-93.31-208-208a208.08 208.08 0 0 1 166.23-203.79C258 176.5 375 80 512 80s254 96.5 281.77 228.21A208.08 208.08 0 0 1 960 512c0 114.69-93.31 208-208 208zM663 806.63l-128 128a32.86 32.86 0 0 1-45.95 0l-128-128a32 32 0 1 1 45.25-45.25L480 835.1V496.35a32 32 0 1 1 64 0V835.1l73.72-73.72A32 32 0 1 1 663 806.63zM752 720H640a32 32 0 0 1 0-64h112c79.4 0 144-64.6 144-144a144 144 0 0 0-132.45-143.54 32 32 0 0 1-29.24-28C720.6 228.46 625 144 512 144s-208.6 84.46-222.31 196.45a32 32 0 0 1-29.24 28A144 144 0 0 0 128 512c0 79.4 64.6 144 144 144h112a32 32 0 0 1 0 64H272c-114.69 0-208-93.31-208-208a208.08 208.08 0 0 1 166.23-203.79C258 176.5 375 80 512 80s254 96.5 281.77 228.21A208.08 208.08 0 0 1 960 512c0 114.69-93.31 208-208 208zM663 806.63l-128 128a32.86 32.86 0 0 1-45.95 0l-128-128a32 32 0 1 1 45.25-45.25L480 835.1V496.35a32 32 0 1 1 64 0V835.1l73.72-73.72A32 32 0 1 1 663 806.63z" /></svg>