<?xml version="1.0" standalone="no"?><!DOCTYPE svg PUBLIC "-//W3C//DTD SVG 1.1//EN" "http://www.w3.org/Graphics/SVG/1.1/DTD/svg11.dtd"><svg class="icon" width="200px" height="200.00px" viewBox="0 0 1024 1024" version="1.1" xmlns="http://www.w3.org/2000/svg"><path d="M838 452.643V515h-34.681v-62.357c0-160.715-130.428-291-291.319-291s-291.319 130.285-291.319 291V515H186v-62.357C186 272.8 331.955 127 512 127s326 145.8 326 325.643z" fill="#FCCAA7" /><path d="M125 530h61v250h-61a61 61 0 0 1-61-61V591a61 61 0 0 1 61-61z" fill="#FFEDE1" /><path d="M204.99 480a61 61 0 0 1 61 61v228a61 61 0 0 1-122 0V541a61 61 0 0 1 61-61z" fill="#BC4141" /><path d="M838 530h61a61 61 0 0 1 61 61v128a61 61 0 0 1-61 61h-61V530z" fill="#FFEDE1" /><path d="M758 480l122 0 0 350-122 0 0-350Z" fill="#BC4141" /></svg>